<?xml version="1.0" encoding="UTF-8" standalone="no"?>
<svg
   xmlns:dc="http://purl.org/dc/elements/1.1/"
   xmlns:cc="http://creativecommons.org/ns#"
   xmlns:rdf="http://www.w3.org/1999/02/22-rdf-syntax-ns#"
   xmlns:svg="http://www.w3.org/2000/svg"
   xmlns="http://www.w3.org/2000/svg"
   xmlns:xlink="http://www.w3.org/1999/xlink"
   xmlns:sodipodi="http://sodipodi.sourceforge.net/DTD/sodipodi-0.dtd"
   xmlns:inkscape="http://www.inkscape.org/namespaces/inkscape"
   height="512"
   id="svg2250"
   version="1.1"
   viewBox="0 0 512 512"
   width="512"
   sodipodi:docname="logo_outline.svg"
   inkscape:export-filename="~/basis.png"
   inkscape:export-xdpi="96"
   inkscape:export-ydpi="96"
   inkscape:version="0.92.4 5da689c313, 2019-01-14">
  <defs
     id="defs2244">
    <marker
       inkscape:stockid="Arrow1Lstart"
       orient="auto"
       refY="0.0"
       refX="0.0"
       id="marker5873"
       style="overflow:visible"
       inkscape:isstock="true">
      <path
         id="path5871"
         d="M 0.0,0.0 L 5.0,-5.0 L -12.5,0.0 L 5.0,5.0 L 0.0,0.0 z "
         style="fill-rule:evenodd;stroke:#14b967;stroke-width:1pt;stroke-opacity:1;fill:#14b967;fill-opacity:1"
         transform="scale(0.8) translate(12.5,0)" />
    </marker>
    <marker
       inkscape:stockid="Arrow1Lstart"
       orient="auto"
       refY="0.0"
       refX="0.0"
       id="marker5767"
       style="overflow:visible"
       inkscape:isstock="true">
      <path
         id="path5765"
         d="M 0.0,0.0 L 5.0,-5.0 L -12.5,0.0 L 5.0,5.0 L 0.0,0.0 z "
         style="fill-rule:evenodd;stroke:#14b967;stroke-width:1pt;stroke-opacity:1;fill:#14b967;fill-opacity:1"
         transform="scale(0.8) translate(12.5,0)" />
    </marker>
    <marker
       inkscape:stockid="Arrow1Lstart"
       orient="auto"
       refY="0.0"
       refX="0.0"
       id="marker5667"
       style="overflow:visible"
       inkscape:isstock="true">
      <path
         id="path5665"
         d="M 0.0,0.0 L 5.0,-5.0 L -12.5,0.0 L 5.0,5.0 L 0.0,0.0 z "
         style="fill-rule:evenodd;stroke:#14b967;stroke-width:1pt;stroke-opacity:1;fill:#14b967;fill-opacity:1"
         transform="scale(0.8) translate(12.5,0)" />
    </marker>
    <marker
       inkscape:stockid="Arrow1Lstart"
       orient="auto"
       refY="0.0"
       refX="0.0"
       id="marker5573"
       style="overflow:visible"
       inkscape:isstock="true">
      <path
         id="path5571"
         d="M 0.0,0.0 L 5.0,-5.0 L -12.5,0.0 L 5.0,5.0 L 0.0,0.0 z "
         style="fill-rule:evenodd;stroke:#14b967;stroke-width:1pt;stroke-opacity:1;fill:#14b967;fill-opacity:1"
         transform="scale(0.8) translate(12.5,0)" />
    </marker>
    <marker
       inkscape:stockid="Arrow1Lstart"
       orient="auto"
       refY="0.0"
       refX="0.0"
       id="marker5485"
       style="overflow:visible"
       inkscape:isstock="true">
      <path
         id="path5483"
         d="M 0.0,0.0 L 5.0,-5.0 L -12.5,0.0 L 5.0,5.0 L 0.0,0.0 z "
         style="fill-rule:evenodd;stroke:#14b967;stroke-width:1pt;stroke-opacity:1;fill:#14b967;fill-opacity:1"
         transform="scale(0.8) translate(12.5,0)" />
    </marker>
    <marker
       inkscape:stockid="Arrow1Lstart"
       orient="auto"
       refY="0.0"
       refX="0.0"
       id="marker5403"
       style="overflow:visible"
       inkscape:isstock="true">
      <path
         id="path5401"
         d="M 0.0,0.0 L 5.0,-5.0 L -12.5,0.0 L 5.0,5.0 L 0.0,0.0 z "
         style="fill-rule:evenodd;stroke:#14b967;stroke-width:1pt;stroke-opacity:1;fill:#14b967;fill-opacity:1"
         transform="scale(0.8) translate(12.5,0)" />
    </marker>
    <marker
       inkscape:stockid="Arrow1Lstart"
       orient="auto"
       refY="0.0"
       refX="0.0"
       id="marker5327"
       style="overflow:visible"
       inkscape:isstock="true">
      <path
         id="path5325"
         d="M 0.0,0.0 L 5.0,-5.0 L -12.5,0.0 L 5.0,5.0 L 0.0,0.0 z "
         style="fill-rule:evenodd;stroke:#14b967;stroke-width:1pt;stroke-opacity:1;fill:#14b967;fill-opacity:1"
         transform="scale(0.8) translate(12.5,0)" />
    </marker>
    <marker
       inkscape:stockid="Arrow1Lstart"
       orient="auto"
       refY="0.0"
       refX="0.0"
       id="marker5257"
       style="overflow:visible"
       inkscape:isstock="true">
      <path
         id="path5255"
         d="M 0.0,0.0 L 5.0,-5.0 L -12.5,0.0 L 5.0,5.0 L 0.0,0.0 z "
         style="fill-rule:evenodd;stroke:#14b967;stroke-width:1pt;stroke-opacity:1;fill:#14b967;fill-opacity:1"
         transform="scale(0.8) translate(12.5,0)" />
    </marker>
    <marker
       inkscape:stockid="Arrow1Lstart"
       orient="auto"
       refY="0.0"
       refX="0.0"
       id="marker5193"
       style="overflow:visible"
       inkscape:isstock="true">
      <path
         id="path5191"
         d="M 0.0,0.0 L 5.0,-5.0 L -12.5,0.0 L 5.0,5.0 L 0.0,0.0 z "
         style="fill-rule:evenodd;stroke:#14b967;stroke-width:1pt;stroke-opacity:1;fill:#14b967;fill-opacity:1"
         transform="scale(0.8) translate(12.5,0)" />
    </marker>
    <marker
       inkscape:stockid="Arrow1Lstart"
       orient="auto"
       refY="0.0"
       refX="0.0"
       id="marker5135"
       style="overflow:visible"
       inkscape:isstock="true">
      <path
         id="path5133"
         d="M 0.0,0.0 L 5.0,-5.0 L -12.5,0.0 L 5.0,5.0 L 0.0,0.0 z "
         style="fill-rule:evenodd;stroke:#14b967;stroke-width:1pt;stroke-opacity:1;fill:#14b967;fill-opacity:1"
         transform="scale(0.8) translate(12.5,0)" />
    </marker>
    <marker
       inkscape:stockid="Arrow1Lstart"
       orient="auto"
       refY="0.0"
       refX="0.0"
       id="marker5083"
       style="overflow:visible"
       inkscape:isstock="true">
      <path
         id="path5081"
         d="M 0.0,0.0 L 5.0,-5.0 L -12.5,0.0 L 5.0,5.0 L 0.0,0.0 z "
         style="fill-rule:evenodd;stroke:#14b967;stroke-width:1pt;stroke-opacity:1;fill:#14b967;fill-opacity:1"
         transform="scale(0.8) translate(12.5,0)" />
    </marker>
    <marker
       inkscape:stockid="Arrow1Lstart"
       orient="auto"
       refY="0.0"
       refX="0.0"
       id="marker5037"
       style="overflow:visible"
       inkscape:isstock="true">
      <path
         id="path5035"
         d="M 0.0,0.0 L 5.0,-5.0 L -12.5,0.0 L 5.0,5.0 L 0.0,0.0 z "
         style="fill-rule:evenodd;stroke:#14b967;stroke-width:1pt;stroke-opacity:1;fill:#14b967;fill-opacity:1"
         transform="scale(0.8) translate(12.5,0)" />
    </marker>
    <marker
       inkscape:stockid="Arrow1Lstart"
       orient="auto"
       refY="0.0"
       refX="0.0"
       id="marker4997"
       style="overflow:visible"
       inkscape:isstock="true">
      <path
         id="path4995"
         d="M 0.0,0.0 L 5.0,-5.0 L -12.5,0.0 L 5.0,5.0 L 0.0,0.0 z "
         style="fill-rule:evenodd;stroke:#14b967;stroke-width:1pt;stroke-opacity:1;fill:#14b967;fill-opacity:1"
         transform="scale(0.8) translate(12.5,0)" />
    </marker>
    <marker
       inkscape:stockid="Arrow1Lstart"
       orient="auto"
       refY="0.0"
       refX="0.0"
       id="marker4963"
       style="overflow:visible"
       inkscape:isstock="true">
      <path
         id="path4961"
         d="M 0.0,0.0 L 5.0,-5.0 L -12.5,0.0 L 5.0,5.0 L 0.0,0.0 z "
         style="fill-rule:evenodd;stroke:#14b967;stroke-width:1pt;stroke-opacity:1;fill:#14b967;fill-opacity:1"
         transform="scale(0.8) translate(12.5,0)" />
    </marker>
    <marker
       inkscape:stockid="Arrow1Lstart"
       orient="auto"
       refY="0.0"
       refX="0.0"
       id="marker4935"
       style="overflow:visible"
       inkscape:isstock="true">
      <path
         id="path4933"
         d="M 0.0,0.0 L 5.0,-5.0 L -12.5,0.0 L 5.0,5.0 L 0.0,0.0 z "
         style="fill-rule:evenodd;stroke:#14b967;stroke-width:1pt;stroke-opacity:1;fill:#14b967;fill-opacity:1"
         transform="scale(0.8) translate(12.5,0)" />
    </marker>
    <marker
       inkscape:stockid="Arrow1Lstart"
       orient="auto"
       refY="0.0"
       refX="0.0"
       id="marker4913"
       style="overflow:visible"
       inkscape:isstock="true">
      <path
         id="path4911"
         d="M 0.0,0.0 L 5.0,-5.0 L -12.5,0.0 L 5.0,5.0 L 0.0,0.0 z "
         style="fill-rule:evenodd;stroke:#14b967;stroke-width:1pt;stroke-opacity:1;fill:#14b967;fill-opacity:1"
         transform="scale(0.8) translate(12.5,0)" />
    </marker>
    <marker
       inkscape:stockid="Arrow1Lstart"
       orient="auto"
       refY="0.0"
       refX="0.0"
       id="Arrow1Lstart"
       style="overflow:visible"
       inkscape:isstock="true">
      <path
         id="path4635"
         d="M 0.0,0.0 L 5.0,-5.0 L -12.5,0.0 L 5.0,5.0 L 0.0,0.0 z "
         style="fill-rule:evenodd;stroke:#14b967;stroke-width:1pt;stroke-opacity:1;fill:#14b967;fill-opacity:1"
         transform="scale(0.8) translate(12.5,0)" />
    </marker>
    <linearGradient
       id="foss-ag_green"
       xlink:href="#foss-ag_neon-green">
      <stop
         style="stop-color:#14b967"
         id="stop2" />
    </linearGradient>
    <linearGradient
       id="foss-ag_light-green">
      <stop
         style="stop-color:#14b990"
         id="stop5" />
    </linearGradient>
    <linearGradient
       id="foss-ag_neon-green">
      <stop
         style="stop-color:#19eb72"
         id="stop8" />
    </linearGradient>
    <linearGradient
       id="foss-ag_red">
      <stop
         style="stop-color:#b82814"
         id="stop11" />
    </linearGradient>
    <linearGradient
       id="foss-ag_crimson">
      <stop
         style="stop-color:#b8143d"
         id="stop14" />
    </linearGradient>
    <linearGradient
       id="foss-ag_orange">
      <stop
         style="stop-color:#eb4a19"
         id="stop17" />
    </linearGradient>
    <linearGradient
       id="foss-ag_blue">
      <stop
         style="stop-color:#147ab8"
         id="stop20" />
    </linearGradient>
    <linearGradient
       id="foss-ag_light-blue">
      <stop
         style="stop-color:#14abb8"
         id="stop23" />
    </linearGradient>
    <linearGradient
       id="foss-ag_neon-blue">
      <stop
         style="stop-color:#19a6eb"
         id="stop26" />
    </linearGradient>
    <linearGradient
       id="foss-ag_violet">
      <stop
         style="stop-color:#9a14b8"
         id="stop29" />
    </linearGradient>
    <linearGradient
       id="foss-ag_purple">
      <stop
         style="stop-color:#b9148f"
         id="stop32" />
    </linearGradient>
    <linearGradient
       id="foss-ag_magenta">
      <stop
         style="stop-color:#eb1995"
         id="stop35" />
    </linearGradient>
    <linearGradient
       id="foss-ag_yellow">
      <stop
         style="stop-color:#ffcc00"
         id="stop38" />
    </linearGradient>
    <linearGradient
       id="linearGradient43">
      <stop
         style="stop-color:#eb9519"
         id="stop41" />
    </linearGradient>
    <linearGradient
       id="foss-ag_neon-yellow">
      <stop
         style="stop-color:#ebdf19"
         id="stop45" />
    </linearGradient>
    <linearGradient
       id="foss-ag_lighter-grey">
      <stop
         style="stop-color:#e5e5e5"
         id="stop48" />
    </linearGradient>
    <linearGradient
       id="foss-ag_light-grey">
      <stop
         style="stop-color:#b3b3b3"
         id="stop51" />
    </linearGradient>
    <linearGradient
       id="foss-ag_grey">
      <stop
         style="stop-color:#808080"
         id="stop54" />
    </linearGradient>
    <linearGradient
       id="foss-ag_dark-grey">
      <stop
         style="stop-color:#4d4d4d"
         id="stop57" />
    </linearGradient>
    <linearGradient
       id="foss-ag_darker-grey">
      <stop
         style="stop-color:#262626"
         id="stop60" />
    </linearGradient>
    <linearGradient
       id="rainbowGradient">
      <stop
         offset="0%"
         stop-color="#9a14b8"
         id="stop63" />
      <stop
         offset="16.6%"
         stop-color="#9a14b8"
         id="stop65" />
      <stop
         offset="16.6%"
         stop-color="#147ab8"
         id="stop67" />
      <stop
         offset="33.3%"
         stop-color="#147ab8"
         id="stop69" />
      <stop
         offset="33.3%"
         stop-color="#14b967"
         id="stop71" />
      <stop
         offset="50%"
         stop-color="#14b967"
         id="stop73" />
      <stop
         offset="50%"
         stop-color="#ffcc00"
         id="stop75" />
      <stop
         offset="66.6%"
         stop-color="#ffcc00"
         id="stop77" />
      <stop
         offset="66.6%"
         stop-color="#eb9519"
         id="stop79" />
      <stop
         offset="83.3%"
         stop-color="#eb9519"
         id="stop81" />
      <stop
         offset="83.3%"
         stop-color="#b8143d"
         id="stop83" />
      <stop
         offset="100%"
         stop-color="#b8143d"
         id="stop85" />
    </linearGradient>
  </defs>
  <sodipodi:namedview
     bordercolor="#666666"
     borderlayer="true"
     borderopacity="1.0"
     fit-margin-bottom="0"
     fit-margin-left="0"
     fit-margin-right="0"
     fit-margin-top="0"
     id="base"
     pagecolor="#ffffff"
     showgrid="false"
     showguides="false"
     units="px"
     inkscape:bbox-nodes="true"
     inkscape:bbox-paths="true"
     inkscape:current-layer="layer2"
     inkscape:cx="-193.9627"
     inkscape:cy="403.2352"
     inkscape:document-units="px"
     inkscape:measure-end="0,0"
     inkscape:measure-start="0,0"
     inkscape:object-paths="true"
     inkscape:pageopacity="0.0"
     inkscape:pageshadow="2"
     inkscape:showpageshadow="false"
     inkscape:snap-bbox="true"
     inkscape:snap-bbox-edge-midpoints="true"
     inkscape:snap-bbox-midpoints="true"
     inkscape:snap-center="true"
     inkscape:snap-global="true"
     inkscape:snap-intersection-paths="true"
     inkscape:snap-midpoints="true"
     inkscape:snap-object-midpoints="true"
     inkscape:snap-page="true"
     inkscape:snap-smooth-nodes="true"
     inkscape:snap-text-baseline="true"
     inkscape:window-height="1024"
     inkscape:window-maximized="1"
     inkscape:window-width="1894"
     inkscape:window-x="13"
     inkscape:window-y="43"
     inkscape:zoom="0.70710678" />
  <metadata
     id="metadata2247">
    <rdf:RDF>
      <cc:Work
         rdf:about="">
        <dc:format>image/svg+xml</dc:format>
        <dc:type
           rdf:resource="http://purl.org/dc/dcmitype/StillImage" />
        <dc:title></dc:title>
        <cc:license
           rdf:resource="http://creativecommons.org/licenses/by-nc-sa/4.0/" />
      </cc:Work>
      <cc:License
         rdf:about="http://creativecommons.org/licenses/by-nc-sa/4.0/">
        <cc:permits
           rdf:resource="http://creativecommons.org/ns#Reproduction" />
        <cc:permits
           rdf:resource="http://creativecommons.org/ns#Distribution" />
        <cc:requires
           rdf:resource="http://creativecommons.org/ns#Notice" />
        <cc:requires
           rdf:resource="http://creativecommons.org/ns#Attribution" />
        <cc:prohibits
           rdf:resource="http://creativecommons.org/ns#CommercialUse" />
        <cc:permits
           rdf:resource="http://creativecommons.org/ns#DerivativeWorks" />
        <cc:requires
           rdf:resource="http://creativecommons.org/ns#ShareAlike" />
      </cc:License>
    </rdf:RDF>
  </metadata>
  <g
     id="layer2"
     style="display:inline"
     inkscape:groupmode="layer"
     inkscape:label="logo_basic">
    <circle
       id="path3800"
       cx="256"
       cy="256"
       r="256"
       style="fill:#ffff00;fill-opacity:0;stroke-width:6;stroke-miterlimit:4;stroke-dasharray:none;stroke:#000000;stroke-opacity:1" />
    <path
       d="m 110.93017,371.92545 c 13.09251,7.55896 26.18501,15.11793 39.27752,22.67689 l 5.41571,-9.38029 c 6.81427,-11.80205 11.87314,-24.63805 16.75523,-37.61962 4.88295,12.98319 9.93975,25.82103 16.7547,37.62302 l 5.41528,9.37885 c 13.0931,-7.55764 26.18517,-15.11707 39.27729,-22.67639 l -5.41528,-9.37886 c -6.72113,-11.64127 -15.16904,-22.30674 -23.74343,-33.0567 13.59647,2.05063 27.05824,4.03779 40.50026,4.0369 l 10.831,-10e-4 c 0.001,-15.11779 4.5e-4,-30.23557 -1.7e-4,-45.35337 l -10.83002,-2.5e-4 c -13.62844,-7e-5 -27.27595,2.03754 -40.95954,4.2969 8.8018,-10.72249 17.39065,-21.52093 24.20401,-33.32386 l 5.41571,-9.38029 c -13.09251,-7.55896 -26.18501,-15.11792 -39.27751,-22.67688 l -5.41571,9.38028 c -6.81422,11.80257 -11.87223,24.63894 -16.757,37.6234 -4.88384,-12.98093 -9.94458,-25.81584 -16.75912,-37.61853 l -5.41231,-9.384 c -13.0931,7.5577 -26.1852,15.11714 -39.27735,22.67648 l 5.41432,9.38054 c 6.72129,11.64242 15.17217,22.3089 23.74871,33.05963 -13.59882,-2.0521 -27.0592,-4.03633 -40.503114,-4.03606 l -10.830942,0.001 c -0.0012,15.11781 -4.18e-4,30.23561 2.59e-4,45.35342 l 10.829967,3.4e-4 c 13.62797,2.7e-4 27.27382,-2.03734 40.95949,-4.30184 -8.80177,10.71867 -17.38805,21.51717 -20.79515,27.41859 z"
       fill="url(#foss-ag_green)"
       id="path6107-4-3"
       stroke="url(#foss-ag_green)"
       style="fill-opacity:0;stroke-width:6;stroke-miterlimit:4;stroke-dasharray:none;stroke-opacity:1;fill-rule:nonzero;fill:#14b967;stroke:#000000"
       sodipodi:nodetypes="ccccccccccccccccccccccccccccccc"
       inkscape:connector-curvature="0"
       inkscape:label="star_left" />
    <path
       d="m 278.17199,371.92545 c 13.09251,7.55896 26.18501,15.11793 39.27752,22.67689 l 5.41571,-9.38029 c 6.81427,-11.80205 11.87314,-24.63805 16.75523,-37.61962 4.88295,12.98319 9.93975,25.82103 16.7547,37.62302 l 5.41528,9.37885 c 13.0931,-7.55764 26.18517,-15.11707 39.27729,-22.67639 l -5.41528,-9.37886 c -6.72113,-11.64127 -15.16904,-22.30674 -23.74343,-33.0567 13.59647,2.05063 27.05824,4.03779 40.50026,4.0369 l 10.831,-10e-4 c 10e-4,-15.11779 4.5e-4,-30.23557 -1.7e-4,-45.35337 l -10.83002,-2.5e-4 c -13.62844,-7e-5 -27.27595,2.03754 -40.95954,4.2969 8.8018,-10.72249 17.39065,-21.52093 24.20401,-33.32386 l 5.41571,-9.38029 c -13.09251,-7.55896 -26.18501,-15.11792 -39.27751,-22.67688 l -5.41571,9.38028 c -6.81422,11.80257 -11.87223,24.63894 -16.757,37.6234 -4.88384,-12.98093 -9.94458,-25.81584 -16.75912,-37.61853 l -5.41231,-9.384 c -13.0931,7.5577 -26.1852,15.11714 -39.27735,22.67648 l 5.41432,9.38054 c 6.72129,11.64242 15.17217,22.3089 23.74871,33.05963 -13.59882,-2.0521 -27.0592,-4.03633 -40.50311,-4.03606 l -10.83095,0.001 c -0.001,15.11781 -4.1e-4,30.23561 2.6e-4,45.35342 l 10.82997,3.4e-4 c 13.62797,2.7e-4 27.27382,-2.03734 40.95949,-4.30184 -8.80177,10.71867 -17.38805,21.51717 -20.79515,27.41859 z"
       id="path6099-3-7"
       style="fill:#808080;fill-opacity:0;stroke:#130909;stroke-width:6;stroke-miterlimit:4;stroke-dasharray:none;stroke-opacity:1"
       sodipodi:nodetypes="ccccccccccccccccccccccccccccccc"
       inkscape:connector-curvature="0"
       inkscape:label="star_right" />
    <path
       d="m 194.54845,227.08595 c 13.09251,7.55896 26.18501,15.11793 39.27752,22.67689 l 5.41571,-9.38029 c 6.81427,-11.80205 11.87314,-24.63805 16.75523,-37.61962 4.88295,12.98319 9.93975,25.82103 16.7547,37.62302 l 5.41528,9.37885 c 13.0931,-7.55764 26.18517,-15.11707 39.27729,-22.67639 l -5.41528,-9.37886 c -6.72113,-11.64127 -15.16904,-22.30674 -23.74343,-33.0567 13.59647,2.05063 27.05824,4.03779 40.50026,4.0369 l 10.831,-0.001 c 10e-4,-15.11779 4.5e-4,-30.23557 -1.7e-4,-45.35337 l -10.83002,-2.5e-4 c -13.62844,-7e-5 -27.27595,2.03754 -40.95954,4.2969 8.8018,-10.72249 17.39065,-21.52093 24.20401,-33.32386 l 5.41571,-9.38029 C 304.35421,97.36892 291.26171,89.80996 278.16921,82.251 l -5.41571,9.38028 c -6.81422,11.80257 -11.87223,24.63894 -16.757,37.6234 -4.88384,-12.98093 -9.94458,-25.81584 -16.75912,-37.61853 l -5.41231,-9.384 c -13.0931,7.5577 -26.1852,15.11714 -39.27735,22.67648 l 5.41432,9.38054 c 6.72129,11.64242 15.17217,22.3089 23.74871,33.05963 -13.59882,-2.0521 -27.0592,-4.03633 -40.50311,-4.03606 l -10.83095,0.001 c -0.001,15.11781 -4.1e-4,30.23561 2.6e-4,45.35342 l 10.82997,3.4e-4 c 13.62797,2.7e-4 27.27382,-2.03734 40.95949,-4.30184 -8.80177,10.71867 -17.38805,21.51717 -20.79515,27.41859 z"
       id="path6115-9-1"
       style="fill:#0d0d0d;fill-opacity:0;stroke:#000000;stroke-width:6;stroke-miterlimit:4;stroke-dasharray:none;stroke-opacity:1"
       sodipodi:nodetypes="ccccccccccccccccccccccccccccccc"
       inkscape:connector-curvature="0"
       inkscape:label="star_top" />
  </g>
</svg>
